<svg width="25" height="25" viewBox="0 0 25 25" fill="none" xmlns="http://www.w3.org/2000/svg">
<path d="M17.8675 21.0938H10.301C7.07069 21.0938 4.44265 18.4653 4.44265 15.2344V9.22861C4.44265 6.22521 2.94595 3.4452 0.439032 1.79199C-0.0111796 1.49511 -0.135473 0.889454 0.161348 0.439164C0.458169 -0.0111749 1.06367 -0.135539 1.51398 0.161432C2.94507 1.10518 4.10609 2.3499 4.93631 3.78299C5.11572 3.98402 6.56243 5.5177 8.93407 5.5177H20.1775C23.245 5.46032 25.646 8.53926 24.844 11.5007L23.5497 16.6603C22.8949 19.2706 20.5583 21.0938 17.8675 21.0938ZM6.14908 6.9191C6.3114 7.66915 6.39542 8.44253 6.39542 9.22861V15.2344C6.39542 17.3883 8.14745 19.1407 10.301 19.1407H17.8675C19.6613 19.1407 21.219 17.9252 21.6556 16.185L22.9499 11.0254C23.4265 9.26572 21.9996 7.43678 20.1775 7.47081H8.93402C7.86141 7.47081 6.92779 7.23951 6.14908 6.9191ZM9.81277 23.7793C9.81277 23.1051 9.26633 22.5586 8.59229 22.5586C6.97285 22.6231 6.97427 24.9361 8.59229 25C9.26633 25 9.81277 24.4535 9.81277 23.7793ZM19.5278 23.7793C19.5278 23.1051 18.9814 22.5586 18.3073 22.5586C16.6879 22.6231 16.6893 24.9361 18.3073 25C18.9814 25 19.5278 24.4535 19.5278 23.7793ZM21.1539 10.4005C21.1539 9.86113 20.7167 9.42392 20.1775 9.42392H9.32458C8.02911 9.47549 8.03008 11.3259 9.32458 11.377H20.1775C20.7167 11.377 21.1539 10.9398 21.1539 10.4005Z" fill="#333333"/>
</svg>
