<svg width="20" height="25" viewBox="0 0 20 25" fill="none" xmlns="http://www.w3.org/2000/svg">
<path d="M18.2617 25C17.7224 25 17.2852 24.5628 17.2852 24.0234C17.2852 20.2002 14.1748 17.0898 10.3516 17.0898H8.88672C5.06353 17.0898 1.95312 20.2002 1.95312 24.0234C1.95312 24.5628 1.51592 25 0.976562 25C0.437207 25 0 24.5628 0 24.0234C0 19.1233 3.98657 15.1367 8.88672 15.1367H10.3516C15.2517 15.1367 19.2383 19.1233 19.2383 24.0234C19.2383 24.5628 18.8011 25 18.2617 25ZM16.1133 6.5918C16.1133 2.95708 13.1562 0 9.52148 0C5.88677 0 2.92969 2.95708 2.92969 6.5918C2.92969 10.2265 5.88677 13.1836 9.52148 13.1836C13.1562 13.1836 16.1133 10.2265 16.1133 6.5918ZM14.1602 6.5918C14.1602 9.14956 12.0792 11.2305 9.52148 11.2305C6.96372 11.2305 4.88281 9.14956 4.88281 6.5918C4.88281 4.03403 6.96372 1.95312 9.52148 1.95312C12.0792 1.95312 14.1602 4.03403 14.1602 6.5918ZM10.0515 24.8732L14.1042 22.5783C14.3368 22.4466 14.5052 22.2253 14.5703 21.9661C14.6353 21.7068 14.5912 21.4323 14.4483 21.2064L12.9346 18.8138C12.6463 18.3581 12.043 18.2223 11.5873 18.5107C11.1314 18.799 10.9958 19.4023 11.2841 19.8581L12.2495 21.384L9.57617 22.8978L6.97017 21.3856L7.91289 19.8458C8.19453 19.3858 8.04995 18.7847 7.58999 18.503C7.13003 18.2214 6.52881 18.366 6.24722 18.826L4.78237 21.2186C4.64502 21.4428 4.604 21.713 4.66851 21.968C4.73301 22.223 4.89761 22.4412 5.12515 22.5731L9.08022 24.8681C9.23174 24.956 9.40098 25 9.57031 25C9.73618 25 9.9022 24.9578 10.0515 24.8732Z" fill="#333333"/>
</svg>
