<svg width="270" height="56" viewBox="0 0 270 56" fill="none" xmlns="http://www.w3.org/2000/svg">
<path d="M10.9838 22.2379L36.1041 11.0552" stroke="#82C2EB" stroke-width="0.9073" stroke-miterlimit="10"/>
<path d="M65.2329 32.5658H61.7644V27.725H58.1568V32.5658H54.6882V20.3237H58.1568V24.8864H61.7644V20.3237H65.2329V32.5658Z" fill="#010101"/>
<path d="M66.3271 26.5368C66.3271 25.4508 66.4928 24.4998 66.8282 23.6859C67.1616 22.8719 67.5992 22.1929 68.1432 21.6489C68.6852 21.1049 69.311 20.6938 70.0166 20.4157C70.7221 20.1375 71.4482 19.9964 72.1926 19.9964C73.931 19.9964 75.3032 20.5282 76.3135 21.5916C77.3218 22.6551 77.8269 24.2176 77.8269 26.2811C77.8269 26.4815 77.8188 26.7045 77.8044 26.9437C77.7881 27.1851 77.7738 27.3978 77.7574 27.5839H69.8898C69.9675 28.2976 70.3008 28.8641 70.8898 29.2834C71.4788 29.7026 72.2703 29.9112 73.2642 29.9112C73.9003 29.9112 74.524 29.854 75.1376 29.7374C75.7511 29.6208 76.2501 29.4777 76.6387 29.3059L77.105 32.122C76.9189 32.2161 76.6714 32.3081 76.3606 32.4022C76.0497 32.4943 75.7041 32.576 75.3237 32.6456C74.9433 32.7151 74.5363 32.7744 74.1028 32.8194C73.6692 32.8665 73.2336 32.889 72.8 32.889C71.6977 32.889 70.7405 32.7254 69.9266 32.4002C69.1126 32.075 68.4377 31.6271 67.9019 31.0627C67.3661 30.4961 66.9714 29.8254 66.7157 29.0502C66.456 28.2751 66.3271 27.4366 66.3271 26.5368ZM74.4729 25.2115C74.4566 24.917 74.4075 24.6287 74.3216 24.3505C74.2357 24.0724 74.1048 23.8229 73.9269 23.6061C73.7489 23.3893 73.524 23.2114 73.252 23.0703C72.98 22.9312 72.6425 22.8596 72.2396 22.8596C71.8511 22.8596 71.5177 22.9271 71.2396 23.058C70.9594 23.1909 70.7283 23.3648 70.5422 23.5816C70.3561 23.7983 70.2129 24.0499 70.1106 24.3382C70.0104 24.6246 69.9368 24.917 69.8898 25.2115H74.4729Z" fill="#010101"/>
<path d="M90.0671 20.3237V32.5658H86.576C86.576 31.7907 86.5842 31.0177 86.5985 30.2507C86.6128 29.4818 86.6292 28.7721 86.6456 28.1217C86.6619 27.4714 86.6803 26.9008 86.7028 26.41C86.7253 25.9212 86.7376 25.5612 86.7376 25.3281C86.2877 25.9641 85.8377 26.6084 85.3878 27.2608C84.9379 27.9111 84.5063 28.5533 84.0953 29.1811C83.6842 29.809 83.2956 30.4103 82.9316 30.9849C82.5655 31.5596 82.2444 32.0873 81.9663 32.5679H78.917V20.3257H82.3855C82.3855 21.1008 82.3814 21.8432 82.3753 22.5488C82.3671 23.2543 82.3549 23.8945 82.3405 24.4691C82.3262 25.0438 82.3099 25.5428 82.2935 25.9703C82.2771 26.3977 82.271 26.727 82.271 26.9601C83.2015 25.594 84.0605 24.3689 84.8438 23.283C85.6271 22.197 86.392 21.2112 87.1364 20.3277H90.0671V20.3237ZM84.5268 18.6467C84.0298 18.6467 83.5533 18.573 83.0952 18.4258C82.6371 18.2785 82.2219 18.0617 81.8497 17.7754C81.4775 17.4871 81.1707 17.1394 80.9314 16.7283C80.6901 16.3172 80.547 15.8489 80.4999 15.3213L82.8968 14.6934C83.0216 15.2824 83.2261 15.7016 83.5145 15.9512C83.8028 16.1986 84.1382 16.3234 84.5268 16.3234C84.9297 16.3234 85.2753 16.2109 85.5637 15.9859C85.85 15.761 86.0566 15.3376 86.1813 14.7179L88.5557 15.3458C88.5087 15.8734 88.3655 16.3438 88.1242 16.7549C87.8829 17.166 87.5802 17.5116 87.2162 17.7897C86.8521 18.0699 86.4369 18.2826 85.9707 18.4299C85.5064 18.573 85.0238 18.6467 84.5268 18.6467Z" fill="#010101"/>
<path d="M103.123 26.4447C103.123 27.3916 103.007 28.2526 102.773 29.0278C102.54 29.8029 102.199 30.4716 101.749 31.0299C101.299 31.5882 100.741 32.0239 100.074 32.3327C99.4072 32.6435 98.6382 32.7969 97.769 32.7969C97.2884 32.7969 96.8385 32.7499 96.4193 32.6579C96 32.5638 95.5971 32.4329 95.2085 32.2611V36.8688H91.74V20.7388C92.0509 20.6468 92.4067 20.5568 92.8116 20.4709C93.2145 20.385 93.6379 20.3114 94.0796 20.25C94.5214 20.1887 94.9713 20.1375 95.4294 20.0987C95.8875 20.0598 96.3252 20.0414 96.7444 20.0414C97.7527 20.0414 98.6525 20.1928 99.444 20.4954C100.235 20.7981 100.902 21.2255 101.446 21.7757C101.988 22.3258 102.403 22.9967 102.692 23.7881C102.98 24.5816 103.123 25.4672 103.123 26.4447ZM99.5851 26.5368C99.5851 25.4672 99.3438 24.6082 98.8632 23.966C98.3826 23.3218 97.6688 23.0007 96.7219 23.0007C96.4111 23.0007 96.1248 23.013 95.8609 23.0355C95.5971 23.058 95.3803 23.0866 95.2085 23.1173V29.3775C95.4253 29.5165 95.7096 29.6331 96.0593 29.7272C96.409 29.8212 96.7608 29.8663 97.1187 29.8663C98.763 29.8642 99.5851 28.7557 99.5851 26.5368Z" fill="#010101"/>
<path d="M115.668 26.4202C115.668 27.3814 115.529 28.2629 115.249 29.0625C114.969 29.8622 114.566 30.5452 114.038 31.1097C113.51 31.6762 112.878 32.1139 112.14 32.4247C111.404 32.7356 110.578 32.891 109.661 32.891C108.762 32.891 107.944 32.7356 107.205 32.4247C106.469 32.1139 105.835 31.6762 105.307 31.1097C104.78 30.5432 104.369 29.8622 104.074 29.0625C103.78 28.2629 103.632 27.3835 103.632 26.4202C103.632 25.459 103.784 24.5816 104.086 23.7901C104.389 22.9987 104.808 22.3238 105.344 21.7655C105.88 21.2072 106.516 20.7715 107.252 20.4627C107.989 20.1519 108.792 19.9964 109.661 19.9964C110.545 19.9964 111.357 20.1519 112.093 20.4627C112.829 20.7736 113.463 21.2072 113.991 21.7655C114.519 22.3238 114.93 22.9987 115.224 23.7901C115.521 24.5816 115.668 25.459 115.668 26.4202ZM112.13 26.4202C112.13 25.3486 111.917 24.508 111.49 23.8944C111.062 23.2809 110.455 22.9741 109.664 22.9741C108.872 22.9741 108.259 23.2809 107.825 23.8944C107.391 24.508 107.175 25.3486 107.175 26.4202C107.175 27.4919 107.391 28.3406 107.825 28.9684C108.259 29.5963 108.872 29.9112 109.664 29.9112C110.455 29.9112 111.064 29.5963 111.49 28.9684C111.917 28.3406 112.13 27.4919 112.13 26.4202Z" fill="#010101"/>
<path d="M126.65 23.1623H122.74V32.5658H119.272V23.1623H115.361V20.3237H126.648V23.1623H126.65Z" fill="#010101"/>
<path d="M138.545 26.4447C138.545 27.3916 138.428 28.2526 138.195 29.0278C137.962 29.8029 137.621 30.4716 137.171 31.0299C136.721 31.5882 136.162 32.0239 135.496 32.3327C134.829 32.6435 134.06 32.7969 133.191 32.7969C132.71 32.7969 132.26 32.7499 131.841 32.6579C131.422 32.5638 131.019 32.4329 130.63 32.2611V36.8688H127.162V20.7388C127.473 20.6468 127.828 20.5568 128.233 20.4709C128.636 20.385 129.06 20.3114 129.501 20.25C129.943 20.1887 130.393 20.1375 130.851 20.0987C131.309 20.0598 131.747 20.0414 132.166 20.0414C133.174 20.0414 134.074 20.1928 134.866 20.4954C135.657 20.7981 136.324 21.2255 136.868 21.7757C137.41 22.3258 137.825 22.9967 138.113 23.7881C138.4 24.5816 138.545 25.4672 138.545 26.4447ZM135.007 26.5368C135.007 25.4672 134.766 24.6082 134.285 23.966C133.804 23.3218 133.091 23.0007 132.144 23.0007C131.833 23.0007 131.547 23.013 131.283 23.0355C131.019 23.058 130.802 23.0866 130.63 23.1173V29.3775C130.847 29.5165 131.131 29.6331 131.481 29.7272C131.831 29.8212 132.183 29.8663 132.54 29.8663C134.183 29.8642 135.007 28.7557 135.007 26.5368Z" fill="#010101"/>
<path d="M139.056 26.5368C139.056 25.4508 139.222 24.4998 139.557 23.6859C139.891 22.8719 140.328 22.1929 140.872 21.6489C141.414 21.1049 142.04 20.6938 142.746 20.4157C143.451 20.1375 144.177 19.9964 144.922 19.9964C146.66 19.9964 148.032 20.5282 149.043 21.5916C150.051 22.6551 150.556 24.2176 150.556 26.2811C150.556 26.4815 150.548 26.7045 150.533 26.9437C150.517 27.1851 150.503 27.3978 150.486 27.5839H142.619C142.697 28.2976 143.03 28.8641 143.619 29.2834C144.208 29.7026 144.999 29.9112 145.993 29.9112C146.629 29.9112 147.253 29.854 147.867 29.7374C148.48 29.6208 148.979 29.4777 149.368 29.3059L149.834 32.122C149.648 32.2161 149.4 32.3081 149.09 32.4022C148.779 32.4943 148.433 32.576 148.053 32.6456C147.672 32.7151 147.265 32.7744 146.832 32.8194C146.398 32.8665 145.963 32.889 145.529 32.889C144.427 32.889 143.47 32.7254 142.656 32.4002C141.842 32.075 141.167 31.6271 140.631 31.0627C140.095 30.4961 139.7 29.8254 139.445 29.0502C139.183 28.2751 139.056 27.4366 139.056 26.5368ZM147.202 25.2115C147.186 24.917 147.136 24.6287 147.051 24.3505C146.965 24.0724 146.834 23.8229 146.656 23.6061C146.478 23.3893 146.253 23.2114 145.981 23.0703C145.709 22.9312 145.372 22.8596 144.969 22.8596C144.58 22.8596 144.247 22.9271 143.969 23.058C143.688 23.1909 143.457 23.3648 143.271 23.5816C143.085 23.7983 142.942 24.0499 142.842 24.3382C142.741 24.6246 142.668 24.917 142.621 25.2115H147.202Z" fill="#010101"/>
<path d="M162.191 32.5658H158.722V27.725H155.115V32.5658H151.646V20.3237H155.115V24.8864H158.722V20.3237H162.191V32.5658Z" fill="#010101"/>
<path d="M168.265 19.9964C169.289 19.9964 170.142 20.113 170.825 20.3461C171.508 20.5793 172.054 20.9126 172.465 21.3462C172.877 21.7818 173.167 22.3074 173.339 22.9291C173.509 23.5488 173.594 24.2401 173.594 25.0009V32.2161C173.097 32.3245 172.408 32.4533 171.523 32.6006C170.639 32.7478 169.568 32.8215 168.312 32.8215C167.52 32.8215 166.803 32.7519 166.158 32.6108C165.514 32.4717 164.96 32.2427 164.494 31.9236C164.027 31.6066 163.671 31.1915 163.422 30.6782C163.174 30.1669 163.05 29.537 163.05 28.7926C163.05 28.0788 163.193 27.4734 163.481 26.9765C163.768 26.4795 164.152 26.0848 164.633 25.7903C165.113 25.4958 165.663 25.2831 166.285 25.1502C166.907 25.0172 167.549 24.9518 168.218 24.9518C168.668 24.9518 169.069 24.9722 169.416 25.0091C169.766 25.0479 170.048 25.099 170.267 25.1604V24.8352C170.267 24.2462 170.089 23.7717 169.731 23.4159C169.373 23.06 168.754 22.8801 167.87 22.8801C167.281 22.8801 166.698 22.923 166.124 23.0089C165.549 23.0948 165.052 23.2155 164.635 23.3689L164.193 20.5752C164.393 20.5138 164.647 20.4464 164.95 20.3768C165.252 20.3073 165.582 20.2439 165.939 20.1907C166.295 20.1355 166.672 20.0905 167.068 20.0517C167.461 20.0169 167.862 19.9964 168.265 19.9964ZM168.545 30.1444C168.886 30.1444 169.212 30.1362 169.523 30.1219C169.833 30.1076 170.081 30.083 170.267 30.0523V27.4223C170.128 27.3916 169.917 27.361 169.639 27.3303C169.359 27.2996 169.103 27.2832 168.87 27.2832C168.545 27.2832 168.238 27.3037 167.952 27.3425C167.664 27.3814 167.412 27.455 167.195 27.5634C166.978 27.6718 166.807 27.8191 166.684 28.0052C166.559 28.1913 166.498 28.4244 166.498 28.7026C166.498 29.2466 166.68 29.6208 167.044 29.8315C167.408 30.0401 167.907 30.1444 168.545 30.1444Z" fill="#010101"/>
<path d="M173.758 32.5658C174.535 31.306 175.337 30.1485 176.161 29.0911C176.985 28.0338 177.865 27.0092 178.797 26.0132C177.818 25.007 176.926 24.0192 176.126 23.0519C175.325 22.0845 174.613 21.1744 173.991 20.3237H178.049C178.452 20.8942 178.936 21.5528 179.501 22.3013C180.065 23.0498 180.806 23.9947 181.72 25.1359V20.3237H185.094V25.1522C186.041 24.0233 186.794 23.0743 187.352 22.3095C187.91 21.5425 188.391 20.882 188.796 20.3237H192.798C192.226 21.2071 191.553 22.1152 190.778 23.0519C190.005 23.9885 189.099 24.9681 188.062 25.9907C188.618 26.5818 189.117 27.136 189.559 27.6575C190 28.179 190.418 28.6944 190.812 29.2077C191.207 29.7211 191.581 30.2528 191.939 30.805C192.295 31.3571 192.667 31.9441 193.054 32.5658H189.197C188.031 30.807 186.665 28.9541 185.094 27.0092V32.5658H181.72V27.0501C180.928 28.1013 180.176 29.0891 179.462 30.0155C178.748 30.942 178.137 31.7928 177.623 32.5638H173.758V32.5658Z" fill="#010101"/>
<path d="M192.424 26.5368C192.424 25.4508 192.59 24.4998 192.925 23.6859C193.258 22.8719 193.696 22.1929 194.24 21.6489C194.782 21.1049 195.408 20.6938 196.113 20.4157C196.819 20.1375 197.545 19.9964 198.289 19.9964C200.028 19.9964 201.4 20.5282 202.41 21.5916C203.419 22.6551 203.924 24.2176 203.924 26.2811C203.924 26.4815 203.916 26.7045 203.901 26.9437C203.885 27.1851 203.871 27.3978 203.854 27.5839H195.989C196.066 28.2976 196.4 28.8641 196.989 29.2834C197.578 29.7026 198.369 29.9112 199.363 29.9112C199.999 29.9112 200.623 29.854 201.236 29.7374C201.85 29.6208 202.349 29.4777 202.738 29.3059L203.204 32.122C203.018 32.2161 202.77 32.3081 202.459 32.4022C202.149 32.4943 201.803 32.576 201.423 32.6456C201.042 32.7151 200.635 32.7744 200.202 32.8194C199.768 32.8665 199.332 32.889 198.899 32.889C197.797 32.889 196.839 32.7254 196.025 32.4002C195.211 32.075 194.537 31.6271 194.001 31.0627C193.465 30.4961 193.07 29.8254 192.815 29.0502C192.551 28.2751 192.424 27.4366 192.424 26.5368ZM200.57 25.2115C200.553 24.917 200.504 24.6287 200.418 24.3505C200.333 24.0724 200.202 23.8229 200.024 23.6061C199.846 23.3893 199.621 23.2114 199.349 23.0703C199.077 22.9312 198.739 22.8596 198.336 22.8596C197.948 22.8596 197.615 22.9271 197.336 23.058C197.056 23.1909 196.825 23.3648 196.639 23.5816C196.453 23.7983 196.31 24.0499 196.207 24.3382C196.107 24.6246 196.034 24.917 195.987 25.2115H200.57Z" fill="#010101"/>
<path d="M216.397 26.4447C216.397 27.3916 216.28 28.2526 216.047 29.0278C215.814 29.8029 215.473 30.4716 215.023 31.0299C214.573 31.5882 214.014 32.0239 213.348 32.3327C212.681 32.6435 211.912 32.7969 211.043 32.7969C210.562 32.7969 210.112 32.7499 209.693 32.6579C209.274 32.5638 208.871 32.4329 208.482 32.2611V36.8688H205.014V20.7388C205.325 20.6468 205.681 20.5568 206.085 20.4709C206.488 20.385 206.912 20.3114 207.353 20.25C207.795 20.1887 208.245 20.1375 208.703 20.0987C209.161 20.0598 209.599 20.0414 210.018 20.0414C211.026 20.0414 211.926 20.1928 212.718 20.4954C213.509 20.7981 214.176 21.2255 214.72 21.7757C215.262 22.3258 215.677 22.9967 215.965 23.7881C216.252 24.5816 216.397 25.4672 216.397 26.4447ZM212.859 26.5368C212.859 25.4672 212.618 24.6082 212.137 23.966C211.656 23.3218 210.943 23.0007 209.996 23.0007C209.685 23.0007 209.399 23.013 209.135 23.0355C208.871 23.058 208.654 23.0866 208.482 23.1173V29.3775C208.699 29.5165 208.983 29.6331 209.333 29.7272C209.683 29.8212 210.035 29.8663 210.392 29.8663C212.035 29.8642 212.859 28.7557 212.859 26.5368Z" fill="#010101"/>
<path d="M220.958 24.6757C221.174 24.6143 221.459 24.5632 221.808 24.5244C222.158 24.4855 222.557 24.4671 223.007 24.4671C223.721 24.4671 224.391 24.553 225.019 24.7227C225.647 24.8945 226.195 25.1542 226.659 25.5019C227.126 25.8516 227.494 26.2934 227.766 26.8292C228.038 27.3651 228.173 27.9888 228.173 28.7026C228.173 29.4163 228.048 30.034 227.801 30.5534C227.553 31.0729 227.195 31.5003 226.729 31.8337C226.265 32.167 225.709 32.4145 225.064 32.5781C224.42 32.7417 223.702 32.8215 222.911 32.8215C221.886 32.8215 220.947 32.7703 220.095 32.6701C219.242 32.5699 218.373 32.4104 217.487 32.1936V20.3237H220.956V24.6757H220.958ZM222.68 30.1444C223.316 30.1444 223.817 30.0237 224.181 29.7824C224.545 29.5431 224.727 29.1504 224.727 28.6064C224.727 28.3283 224.665 28.0911 224.541 27.8968C224.416 27.7025 224.246 27.5471 224.029 27.4305C223.813 27.3139 223.561 27.2321 223.273 27.1871C222.986 27.1401 222.68 27.1176 222.354 27.1176C222.121 27.1176 221.866 27.1339 221.586 27.1646C221.307 27.1953 221.097 27.228 220.958 27.2587V30.0523C221.144 30.083 221.391 30.1076 221.702 30.1219C222.013 30.1362 222.338 30.1444 222.68 30.1444ZM233.408 32.5658H229.94V20.3237H233.408V32.5658Z" fill="#010101"/>
<path d="M253.103 26.142C253.103 27.0889 252.986 27.9499 252.753 28.7251C252.52 29.5002 252.179 30.1689 251.729 30.7272C251.279 31.2856 250.72 31.7212 250.054 32.03C249.387 32.3409 248.618 32.4942 247.749 32.4942C247.268 32.4942 246.818 32.4472 246.399 32.3552C245.98 32.2611 245.577 32.1302 245.188 31.9584V36.5661H241.72V20.4361C242.031 20.3441 242.387 20.2541 242.791 20.1682C243.194 20.0823 243.618 20.0087 244.059 19.9474C244.501 19.886 244.951 19.8349 245.409 19.796C245.867 19.7572 246.305 19.7387 246.724 19.7387C247.733 19.7387 248.632 19.8901 249.424 20.1928C250.215 20.4954 250.882 20.9229 251.426 21.473C251.968 22.0232 252.383 22.694 252.672 23.4854C252.958 24.281 253.103 25.1645 253.103 26.142ZM249.565 26.2361C249.565 25.1665 249.324 24.3076 248.843 23.6654C248.362 23.0212 247.649 22.7001 246.702 22.7001C246.391 22.7001 246.105 22.7124 245.841 22.7349C245.577 22.7574 245.36 22.786 245.188 22.8167V29.0768C245.405 29.2159 245.689 29.3325 246.039 29.4265C246.389 29.5206 246.741 29.5656 247.099 29.5656C248.741 29.5636 249.565 28.4551 249.565 26.2361Z" fill="url(#paint0_linear_91_18)"/>
<path d="M239.585 30.4246C239.585 31.6005 238.632 32.5536 237.456 32.5536C236.28 32.5536 235.329 31.6005 235.329 30.4246C235.329 29.2486 236.282 28.2956 237.456 28.2956C238.632 28.2956 239.585 29.2507 239.585 30.4246Z" fill="#76C591"/>
<path d="M268.055 21.8371C267.458 21.3401 266.763 20.9535 265.973 20.6734C265.182 20.3952 264.351 20.2152 263.482 20.1375V16.9103H260.108V20.1375C258.991 20.2623 258.022 20.4975 257.2 20.8472C256.377 21.1969 255.702 21.6387 255.175 22.1725C254.647 22.7083 254.257 23.3177 253.999 23.9987C253.743 24.6818 253.614 25.412 253.614 26.1871C253.614 26.9928 253.749 27.7557 254.021 28.4674C254.293 29.1811 254.7 29.809 255.242 30.353C255.784 30.895 256.465 31.3387 257.279 31.6782C258.093 32.0198 259.036 32.2304 260.108 32.3061V36.5661H263.482V32.3061C264.366 32.2284 265.204 32.0545 265.996 31.7825C266.787 31.5105 267.476 31.1281 268.067 30.6311C268.656 30.1342 269.127 29.5227 269.476 28.7926C269.826 28.0645 270 27.2014 270 26.2096C270 25.232 269.826 24.3832 269.476 23.6613C269.127 22.9414 268.652 22.334 268.055 21.8371ZM260.108 29.3775C259.13 29.2691 258.386 28.9746 257.874 28.4939C257.363 28.0133 257.105 27.2608 257.105 26.2361C257.105 25.1665 257.373 24.3812 257.909 23.8863C258.445 23.3893 259.177 23.103 260.108 23.0253V29.3775ZM266.216 27.725C266.039 28.1279 265.805 28.451 265.519 28.6903C265.231 28.9316 264.91 29.1054 264.554 29.2138C264.198 29.3222 263.84 29.3775 263.482 29.3775V23.0232C263.838 23.0396 264.196 23.1009 264.554 23.2093C264.91 23.3177 265.233 23.4916 265.519 23.7329C265.805 23.9742 266.039 24.2953 266.216 24.6982C266.394 25.1011 266.484 25.6062 266.484 26.2116C266.484 26.817 266.394 27.3221 266.216 27.725Z" fill="url(#paint1_linear_91_18)"/>
<path d="M55.2998 44.5688V39.5337H57.0013C57.3961 39.5337 57.7192 39.6052 57.9707 39.7463C58.2223 39.8874 58.4105 40.0797 58.5311 40.321C58.6518 40.5603 58.7131 40.8303 58.7131 41.1268C58.7131 41.4233 58.6538 41.6933 58.5311 41.9367C58.4105 42.178 58.2243 42.3723 57.9748 42.5155C57.7253 42.6586 57.4022 42.7302 57.0095 42.7302H55.7906V42.1903H56.9891C57.2611 42.1903 57.4779 42.1432 57.6415 42.0492C57.8051 41.9551 57.9257 41.8283 57.9994 41.6688C58.073 41.5092 58.1119 41.3293 58.1119 41.1268C58.1119 40.9243 58.075 40.7444 57.9994 40.5848C57.9257 40.4274 57.8051 40.3006 57.6394 40.2106C57.4738 40.1185 57.2529 40.0735 56.9809 40.0735H55.9093V44.5688H55.2998Z" fill="#010101"/>
<path d="M60.7296 44.6587C60.4904 44.6587 60.2736 44.6137 60.0793 44.5217C59.883 44.4296 59.7275 44.2988 59.615 44.1249C59.5005 43.9531 59.4432 43.7425 59.4432 43.4971C59.4432 43.2803 59.4862 43.1044 59.5721 42.9694C59.6559 42.8344 59.7705 42.7281 59.9136 42.6504C60.0568 42.5747 60.2143 42.5154 60.3881 42.4786C60.5599 42.4397 60.7337 42.4091 60.9096 42.3866C61.1387 42.3559 61.3248 42.3334 61.4679 42.3191C61.6111 42.3027 61.7154 42.2782 61.7829 42.2393C61.8504 42.2025 61.8831 42.135 61.8831 42.043V42.0225C61.8831 41.7812 61.8176 41.591 61.6847 41.456C61.5538 41.3231 61.3534 41.2556 61.0875 41.2556C60.8094 41.2556 60.5926 41.3149 60.4351 41.4376C60.2777 41.5603 60.1672 41.6892 60.1038 41.8262L59.5537 41.6299C59.6518 41.4008 59.7827 41.2208 59.9484 41.092C60.112 40.9632 60.294 40.8732 60.4903 40.82C60.6867 40.7689 60.8789 40.7423 61.0691 40.7423C61.1898 40.7423 61.3289 40.7566 61.4884 40.7852C61.6458 40.8139 61.7992 40.8732 61.9485 40.9611C62.0978 41.0491 62.2205 41.182 62.3187 41.362C62.4169 41.5419 62.466 41.7792 62.466 42.0798V44.5687H61.8872V44.0575H61.8565C61.8176 44.1393 61.7522 44.2272 61.6602 44.3213C61.5681 44.4153 61.4454 44.4931 61.2941 44.5585C61.1346 44.6239 60.9485 44.6587 60.7296 44.6587ZM60.8176 44.1372C61.0466 44.1372 61.2409 44.0922 61.3984 44.0022C61.5559 43.9122 61.6765 43.7957 61.7583 43.6545C61.8381 43.5114 61.881 43.3621 61.881 43.2046V42.6729C61.8565 42.7036 61.8033 42.7302 61.7195 42.7527C61.6377 42.7772 61.5416 42.7956 61.4332 42.814C61.3268 42.8324 61.2225 42.8467 61.1202 42.859C61.02 42.8713 60.9382 42.8815 60.8769 42.8897C60.7255 42.9101 60.5844 42.9408 60.4556 42.9838C60.3267 43.0267 60.2204 43.0921 60.1406 43.178C60.0609 43.2639 60.022 43.3805 60.022 43.5277C60.022 43.7302 60.0977 43.8816 60.247 43.9838C60.3963 44.084 60.5865 44.1372 60.8176 44.1372Z" fill="#010101"/>
<path d="M63.286 43.6055H63.9057C63.92 43.7752 63.9977 43.9061 64.1388 43.994C64.2799 44.082 64.464 44.127 64.6931 44.127C64.9262 44.127 65.1246 44.08 65.2902 43.9838C65.4559 43.8877 65.5377 43.7323 65.5377 43.5175C65.5377 43.3907 65.507 43.2803 65.4436 43.1862C65.3802 43.0921 65.2943 43.0185 65.1798 42.9674C65.0673 42.9142 64.9344 42.8897 64.779 42.8897H64.1307V42.3682H64.779C65.0101 42.3682 65.1818 42.315 65.2923 42.2107C65.4027 42.1043 65.4579 41.9734 65.4579 41.816C65.4579 41.6483 65.3986 41.5112 65.278 41.409C65.1594 41.3067 64.9896 41.2556 64.7708 41.2556C64.5499 41.2556 64.3638 41.3047 64.2165 41.4028C64.0693 41.5031 63.9916 41.6299 63.9834 41.7853H63.374C63.3801 41.5808 63.4414 41.4029 63.5601 41.2454C63.6787 41.09 63.8402 40.9652 64.0427 40.8773C64.2472 40.7873 64.4783 40.7423 64.7401 40.7423C65.006 40.7423 65.2371 40.7893 65.4314 40.8814C65.6277 40.9734 65.779 41.0981 65.8874 41.2576C65.9938 41.4151 66.0469 41.5951 66.0469 41.7955C66.0469 42.0082 65.9876 42.1821 65.867 42.3109C65.7463 42.4418 65.597 42.5359 65.417 42.5911V42.6299C65.5602 42.6402 65.685 42.6852 65.7893 42.767C65.8956 42.8488 65.9774 42.9551 66.0367 43.084C66.096 43.2128 66.1247 43.358 66.1247 43.5155C66.1247 43.7445 66.0633 43.9449 65.9406 44.1147C65.8179 44.2844 65.6481 44.4153 65.4354 44.5074C65.2207 44.5994 64.9753 44.6465 64.6992 44.6465C64.4313 44.6465 64.192 44.6035 63.9813 44.5156C63.7707 44.4276 63.603 44.3049 63.4783 44.1495C63.3576 43.994 63.2921 43.812 63.286 43.6055Z" fill="#010101"/>
<path d="M66.9448 44.5687V40.7914H68.4889C68.8959 40.7914 69.219 40.8834 69.4583 41.0675C69.6976 41.2515 69.8182 41.4928 69.8182 41.7955C69.8182 42.0246 69.7507 42.2025 69.6137 42.3293C69.4767 42.454 69.3029 42.5399 69.0902 42.5829C69.2292 42.6033 69.3642 42.6504 69.4971 42.7302C69.628 42.8079 69.7385 42.9183 69.8244 43.0533C69.9103 43.1883 69.9553 43.358 69.9553 43.5564C69.9553 43.7507 69.9062 43.9225 69.808 44.0738C69.7098 44.2272 69.5687 44.3479 69.3867 44.4358C69.2026 44.5237 68.9838 44.5687 68.7282 44.5687H66.9448ZM67.497 42.3763H68.4909C68.6464 42.3763 68.7793 42.3538 68.8918 42.3109C69.0043 42.2679 69.0902 42.2045 69.1474 42.1248C69.2067 42.043 69.2374 41.9469 69.2374 41.8344C69.2374 41.6769 69.172 41.5501 69.039 41.4601C68.9061 41.3681 68.7241 41.3231 68.4909 41.3231H67.497V42.3763ZM67.497 44.039H68.7261C68.9266 44.039 69.082 43.992 69.1965 43.8959C69.309 43.7998 69.3663 43.6709 69.3663 43.5073C69.3663 43.313 69.309 43.1596 69.1965 43.0471C69.082 42.9347 68.9266 42.8795 68.7261 42.8795H67.497V44.039Z" fill="#010101"/>
<path d="M71.4093 43.7139L73.2295 40.7934H73.8982V44.5708H73.3174V41.6503L71.5075 44.5708H70.8285V40.7934H71.4093V43.7139Z" fill="#010101"/>
<path d="M74.9617 44.5687V40.7914H76.5058C76.9127 40.7914 77.2359 40.8834 77.4751 41.0675C77.7144 41.2515 77.8351 41.4928 77.8351 41.7955C77.8351 42.0246 77.7676 42.2025 77.6306 42.3293C77.4936 42.454 77.3197 42.5399 77.107 42.5829C77.2461 42.6033 77.3811 42.6504 77.514 42.7302C77.6449 42.8079 77.7553 42.9183 77.8412 43.0533C77.9271 43.1903 77.9721 43.358 77.9721 43.5564C77.9721 43.7507 77.923 43.9225 77.8249 44.0738C77.7267 44.2272 77.5856 44.3479 77.4036 44.4358C77.2195 44.5237 77.0007 44.5687 76.745 44.5687H74.9617ZM75.5118 42.3763H76.5058C76.6612 42.3763 76.7941 42.3538 76.9066 42.3109C77.0191 42.2679 77.105 42.2045 77.1622 42.1248C77.2215 42.043 77.2522 41.9469 77.2522 41.8344C77.2522 41.6769 77.1868 41.5501 77.0539 41.4601C76.9209 41.3681 76.7389 41.3231 76.5058 41.3231H75.5118V42.3763ZM75.5118 44.039H76.7409C76.9414 44.039 77.0968 43.992 77.2113 43.8959C77.3238 43.7998 77.3811 43.6709 77.3811 43.5073C77.3811 43.313 77.3238 43.1596 77.2113 43.0471C77.0968 42.9347 76.9414 42.8795 76.7409 42.8795H75.5118V44.039Z" fill="#010101"/>
<path d="M79.956 44.6587C79.7167 44.6587 79.4999 44.6137 79.3056 44.5217C79.1093 44.4296 78.9538 44.2988 78.8414 44.1249C78.7268 43.9531 78.6696 43.7425 78.6696 43.4971C78.6696 43.2803 78.7125 43.1044 78.7984 42.9694C78.8823 42.8344 78.9968 42.7281 79.1399 42.6504C79.2831 42.5747 79.4406 42.5154 79.6144 42.4786C79.7862 42.4397 79.96 42.4091 80.1359 42.3866C80.365 42.3559 80.5511 42.3334 80.6942 42.3191C80.8374 42.3027 80.9417 42.2782 81.0092 42.2393C81.0767 42.2025 81.1094 42.135 81.1094 42.043V42.0225C81.1094 41.7812 81.044 41.591 80.911 41.456C80.7801 41.3231 80.5797 41.2556 80.3139 41.2556C80.0357 41.2556 79.8189 41.3149 79.6615 41.4376C79.504 41.5603 79.3935 41.6892 79.3301 41.8262L78.78 41.6299C78.8782 41.4008 79.0091 41.2208 79.1747 41.092C79.3383 40.9632 79.5203 40.8732 79.7167 40.82C79.913 40.7689 80.1052 40.7423 80.2954 40.7423C80.4161 40.7423 80.5552 40.7566 80.7147 40.7852C80.8722 40.8139 81.0256 40.8732 81.1748 40.9611C81.3241 41.0491 81.4468 41.182 81.545 41.362C81.6432 41.5419 81.6923 41.7792 81.6923 42.0798V44.5687H81.1135V44.0575H81.0828C81.044 44.1393 80.9785 44.2272 80.8865 44.3213C80.7945 44.4153 80.6717 44.4931 80.5204 44.5585C80.3629 44.6239 80.1768 44.6587 79.956 44.6587ZM80.0459 44.1372C80.275 44.1372 80.4693 44.0922 80.6268 44.0022C80.7842 43.9122 80.9049 43.7957 80.9867 43.6545C81.0665 43.5114 81.1094 43.3621 81.1094 43.2046V42.6729C81.0849 42.7036 81.0317 42.7302 80.9478 42.7527C80.864 42.7752 80.7699 42.7956 80.6615 42.814C80.5552 42.8324 80.4509 42.8467 80.3486 42.859C80.2484 42.8713 80.1666 42.8815 80.1052 42.8897C79.9539 42.9101 79.8128 42.9408 79.6839 42.9838C79.5551 43.0267 79.4488 43.0921 79.369 43.178C79.2892 43.2639 79.2504 43.3805 79.2504 43.5277C79.2504 43.7302 79.326 43.8816 79.4753 43.9838C79.6226 44.084 79.8148 44.1372 80.0459 44.1372Z" fill="#010101"/>
<path d="M83.0543 40.7914V44.5687H82.4735V40.7914H83.0543ZM84.5595 42.4438V42.9858H82.5635V42.4438H84.5595ZM85.7212 44.6485C85.3796 44.6485 85.0811 44.5687 84.8254 44.4051C84.5698 44.2415 84.3694 44.0165 84.2262 43.7241C84.083 43.4316 84.0114 43.0901 84.0114 42.7015C84.0114 42.3089 84.083 41.9653 84.2262 41.6708C84.3694 41.3783 84.5698 41.1493 84.8254 40.9877C85.0811 40.8261 85.3796 40.7443 85.7212 40.7443C86.0627 40.7443 86.3613 40.8261 86.6169 40.9877C86.8726 41.1493 87.073 41.3783 87.2162 41.6708C87.3593 41.9653 87.4309 42.3089 87.4309 42.7015C87.4309 43.0921 87.3593 43.4337 87.2162 43.7241C87.073 44.0165 86.8726 44.2415 86.6169 44.4051C86.3613 44.5687 86.0627 44.6485 85.7212 44.6485ZM85.7212 44.127C85.9789 44.127 86.1936 44.0615 86.3613 43.9286C86.529 43.7957 86.6517 43.6218 86.7335 43.405C86.8133 43.1883 86.8542 42.9531 86.8542 42.7015C86.8542 42.45 86.8133 42.2148 86.7335 41.9959C86.6538 41.7771 86.529 41.6012 86.3613 41.4663C86.1936 41.3313 85.9809 41.2638 85.7212 41.2638C85.4635 41.2638 85.2488 41.3313 85.0811 41.4663C84.9154 41.6012 84.7906 41.7771 84.7088 41.9959C84.6291 42.2148 84.5882 42.45 84.5882 42.7015C84.5882 42.9531 84.6291 43.1883 84.7088 43.405C84.7886 43.6218 84.9134 43.7957 85.0811 43.9286C85.2488 44.0595 85.4615 44.127 85.7212 44.127Z" fill="#010101"/>
<path d="M88.3757 40.7914H88.9565V44.0268H90.382V40.7914H90.9628V44.0268H92.3903V40.7914H92.9691V44.5687H88.3757V40.7914ZM93.5295 44.0288L93.462 45.6526H92.8628V44.5708H92.3719V44.0288H93.5295Z" fill="#010101"/>
<path d="M94.9569 43.7139L96.7771 40.7934H97.4458V44.5708H96.865V41.6503L95.0551 44.5708H94.3761V40.7934H94.9569V43.7139Z" fill="#010101"/>
<path d="M100.09 44.6485C99.7263 44.6485 99.4134 44.5687 99.1496 44.4072C98.8857 44.2456 98.6833 44.0186 98.5422 43.7282C98.4011 43.4378 98.3295 43.0983 98.3295 42.7117C98.3295 42.3252 98.4011 41.9837 98.5422 41.6892C98.6833 41.3926 98.8816 41.1615 99.1373 40.9959C99.3909 40.8302 99.6895 40.7464 100.031 40.7464C100.227 40.7464 100.422 40.7791 100.614 40.8445C100.806 40.91 100.98 41.0163 101.137 41.1636C101.295 41.3108 101.42 41.5031 101.514 41.7444C101.608 41.9857 101.653 42.2823 101.653 42.634V42.8795H98.7405V42.3784H101.062C101.062 42.1657 101.019 41.9755 100.935 41.8078C100.851 41.6401 100.73 41.5092 100.575 41.411C100.422 41.3149 100.238 41.2658 100.029 41.2658C99.7979 41.2658 99.5975 41.3231 99.4298 41.4356C99.262 41.5481 99.1332 41.6974 99.0432 41.8794C98.9532 42.0614 98.9082 42.2577 98.9082 42.4643V42.7976C98.9082 43.084 98.9573 43.3253 99.0575 43.5216C99.1577 43.718 99.2948 43.8693 99.4706 43.9715C99.6465 44.0738 99.8531 44.1249 100.088 44.1249C100.24 44.1249 100.379 44.1024 100.501 44.0595C100.626 44.0165 100.733 43.9511 100.822 43.8631C100.912 43.7752 100.982 43.6668 101.031 43.5359L101.591 43.6934C101.532 43.8836 101.434 44.0513 101.295 44.1945C101.156 44.3376 100.984 44.4481 100.78 44.5278C100.575 44.6076 100.346 44.6485 100.09 44.6485Z" fill="#010101"/>
<path d="M105.068 43.7139L106.888 40.7934H107.557V44.5708H106.976V41.6503L105.166 44.5708H104.487V40.7934H105.068V43.7139Z" fill="#010101"/>
<path d="M110.948 40.7914V41.3333H109.197V44.5687H108.616V40.7914H110.948Z" fill="#010101"/>
<path d="M111.795 45.986V40.7934H112.355V41.3926H112.424C112.467 41.3272 112.527 41.2433 112.602 41.1411C112.678 41.0388 112.789 40.9468 112.932 40.865C113.075 40.7832 113.269 40.7423 113.517 40.7423C113.834 40.7423 114.114 40.822 114.357 40.9816C114.598 41.139 114.789 41.3661 114.926 41.6565C115.061 41.9489 115.13 42.2925 115.13 42.6892C115.13 43.0901 115.063 43.4357 114.926 43.7282C114.789 44.0206 114.6 44.2476 114.359 44.4072C114.118 44.5667 113.842 44.6465 113.525 44.6465C113.283 44.6465 113.087 44.6055 112.942 44.5237C112.797 44.444 112.684 44.3519 112.606 44.2456C112.527 44.1413 112.467 44.0554 112.424 43.9859H112.375V45.9819H111.795V45.986ZM112.365 42.6811C112.365 42.9674 112.406 43.2169 112.49 43.4337C112.574 43.6505 112.696 43.8202 112.856 43.9429C113.016 44.0656 113.214 44.127 113.445 44.127C113.688 44.127 113.891 44.0636 114.052 43.9347C114.216 43.8059 114.339 43.6321 114.423 43.4132C114.504 43.1944 114.547 42.951 114.547 42.6811C114.547 42.4152 114.506 42.1759 114.425 41.9612C114.345 41.7464 114.222 41.5767 114.059 41.452C113.897 41.3272 113.69 41.2638 113.445 41.2638C113.21 41.2638 113.011 41.3231 112.85 41.4417C112.69 41.5603 112.568 41.726 112.486 41.9387C112.406 42.1514 112.365 42.3988 112.365 42.6811Z" fill="#010101"/>
<path d="M116.251 45.9758C116.151 45.9758 116.065 45.9676 115.987 45.9533C115.911 45.9369 115.856 45.9226 115.828 45.9083L115.975 45.397C116.188 45.4522 116.363 45.4502 116.505 45.3929C116.646 45.3356 116.768 45.1679 116.871 44.8857L116.979 44.5912L115.582 40.7954H116.212L117.253 43.8059H117.292L118.335 40.7954L118.969 40.8057L117.361 45.123C117.29 45.3152 117.2 45.4747 117.094 45.6015C116.987 45.7283 116.862 45.8224 116.723 45.8858C116.584 45.9492 116.425 45.9758 116.251 45.9758Z" fill="#010101"/>
<path d="M119.736 40.7914H120.317V44.0268H121.742V40.7914H122.323V44.0268H123.75V40.7914H124.329V44.5687H119.736V40.7914Z" fill="#010101"/>
<path d="M125.391 44.5687V40.7914H125.971V42.4336H126.356L127.714 40.7914H128.46L126.937 42.6095L128.481 44.5667H127.734L126.495 42.9735H125.973V44.5667H125.391V44.5687Z" fill="#010101"/>
<path d="M129.689 43.7139L131.51 40.7934H132.178V44.5708H131.598V41.6503L129.788 44.5708H129.109V40.7934H129.689V43.7139Z" fill="#010101"/>
<path d="M134.786 45.6506V44.0268H135.101C135.177 43.947 135.244 43.8611 135.299 43.767C135.355 43.673 135.404 43.5625 135.447 43.4337C135.487 43.3048 135.524 43.1474 135.553 42.9613C135.584 42.7752 135.608 42.5502 135.631 42.2864L135.759 40.7914H138.158V44.0268H138.739V45.6506H138.158V44.5687H135.365V45.6506H134.786ZM135.759 44.0288H137.578V41.3354H136.299L136.201 42.2884C136.16 42.6831 136.109 43.0287 136.05 43.3232C135.991 43.6177 135.892 43.8529 135.759 44.0288Z" fill="#010101"/>
<path d="M139.171 44.5687V44.0268H139.308C139.422 44.0268 139.516 44.0043 139.59 43.9593C139.666 43.9143 139.727 43.8345 139.774 43.72C139.821 43.6055 139.856 43.448 139.883 43.2435C139.909 43.039 139.925 42.7792 139.938 42.4643L140.005 40.7914H142.523V44.5687H141.942V41.3333H140.555L140.496 42.6811C140.484 42.9899 140.455 43.2639 140.414 43.4991C140.371 43.7343 140.308 43.9306 140.224 44.0902C140.14 44.2476 140.028 44.3683 139.889 44.4501C139.75 44.5299 139.576 44.5708 139.365 44.5708H139.171V44.5687Z" fill="#010101"/>
<path d="M143.341 44.5687L144.412 42.6892H145.042L143.971 44.5687H143.341ZM145.858 44.5687V41.3231H144.856C144.629 41.3231 144.451 41.3763 144.322 41.4806C144.194 41.5869 144.128 41.7301 144.128 41.9121C144.128 42.0941 144.188 42.2352 144.304 42.3375C144.421 42.4397 144.582 42.4909 144.787 42.4909H146.006V43.0328H144.787C144.531 43.0328 144.31 42.9878 144.126 42.8978C143.94 42.8079 143.799 42.679 143.699 42.5113C143.599 42.3436 143.549 42.1432 143.549 41.9121C143.549 41.681 143.603 41.4806 143.707 41.3129C143.813 41.1452 143.963 41.0163 144.159 40.9263C144.355 40.8343 144.588 40.7914 144.86 40.7914H146.413V44.5687H145.858Z" fill="#010101"/>
<path d="M149.016 45.6506V44.0268H149.331C149.407 43.947 149.474 43.8611 149.529 43.767C149.585 43.673 149.634 43.5625 149.677 43.4337C149.717 43.3048 149.754 43.1474 149.783 42.9613C149.814 42.7752 149.838 42.5502 149.861 42.2864L149.989 40.7914H152.388V44.0268H152.969V45.6506H152.388V44.5687H149.595V45.6506H149.016ZM149.989 44.0288H151.808V41.3354H150.529L150.431 42.2884C150.39 42.6831 150.339 43.0287 150.28 43.3232C150.219 43.6177 150.122 43.8529 149.989 44.0288Z" fill="#010101"/>
<path d="M155.321 44.6485C154.957 44.6485 154.644 44.5687 154.38 44.4072C154.117 44.2456 153.914 44.0186 153.773 43.7282C153.632 43.4378 153.56 43.0983 153.56 42.7117C153.56 42.3252 153.632 41.9837 153.773 41.6892C153.914 41.3926 154.112 41.1615 154.368 40.9959C154.622 40.8302 154.92 40.7464 155.262 40.7464C155.458 40.7464 155.652 40.7791 155.845 40.8445C156.037 40.91 156.211 41.0163 156.368 41.1636C156.526 41.3108 156.65 41.5031 156.745 41.7444C156.839 41.9857 156.884 42.2823 156.884 42.634V42.8795H153.971V42.3784H156.293C156.293 42.1657 156.25 41.9755 156.166 41.8078C156.082 41.6401 155.961 41.5092 155.806 41.411C155.652 41.3149 155.468 41.2658 155.26 41.2658C155.029 41.2658 154.828 41.3231 154.661 41.4356C154.493 41.5481 154.364 41.6974 154.274 41.8794C154.184 42.0614 154.139 42.2577 154.139 42.4643V42.7976C154.139 43.084 154.188 43.3253 154.288 43.5216C154.389 43.718 154.526 43.8693 154.701 43.9715C154.877 44.0738 155.084 44.1249 155.319 44.1249C155.47 44.1249 155.61 44.1024 155.732 44.0595C155.857 44.0165 155.963 43.9511 156.053 43.8631C156.143 43.7752 156.213 43.6668 156.262 43.5359L156.822 43.6934C156.763 43.8836 156.665 44.0513 156.526 44.1945C156.387 44.3376 156.215 44.4481 156.01 44.5278C155.806 44.6076 155.577 44.6485 155.321 44.6485Z" fill="#010101"/>
<path d="M157.415 41.3333V40.7914H160.485V41.3333H159.246V44.5687H158.665V41.3333H157.415Z" fill="#010101"/>
<path d="M162.716 44.6485C162.352 44.6485 162.039 44.5687 161.776 44.4072C161.512 44.2456 161.309 44.0186 161.168 43.7282C161.027 43.4378 160.956 43.0983 160.956 42.7117C160.956 42.3252 161.027 41.9837 161.168 41.6892C161.309 41.3926 161.508 41.1615 161.763 40.9959C162.017 40.8302 162.316 40.7464 162.657 40.7464C162.853 40.7464 163.048 40.7791 163.24 40.8445C163.432 40.91 163.606 41.0163 163.764 41.1636C163.921 41.3108 164.046 41.5031 164.14 41.7444C164.234 41.9857 164.279 42.2823 164.279 42.634V42.8795H161.367V42.3784H163.688C163.688 42.1657 163.645 41.9755 163.561 41.8078C163.477 41.6401 163.357 41.5092 163.201 41.411C163.048 41.3149 162.864 41.2658 162.655 41.2658C162.424 41.2658 162.224 41.3231 162.056 41.4356C161.888 41.5481 161.759 41.6974 161.669 41.8794C161.579 42.0614 161.534 42.2577 161.534 42.4643V42.7976C161.534 43.084 161.583 43.3253 161.684 43.5216C161.784 43.718 161.921 43.8693 162.097 43.9715C162.273 44.0738 162.479 44.1249 162.714 44.1249C162.866 44.1249 163.005 44.1024 163.127 44.0595C163.252 44.0165 163.359 43.9511 163.449 43.8631C163.539 43.7752 163.608 43.6668 163.657 43.5359L164.218 43.6934C164.158 43.8836 164.06 44.0513 163.921 44.1945C163.782 44.3376 163.61 44.4481 163.406 44.5278C163.201 44.6076 162.972 44.6485 162.716 44.6485Z" fill="#010101"/>
<path d="M165.747 43.7139L167.567 40.7934H168.236V44.5708H167.655V41.6503L165.845 44.5708H165.167V40.7934H165.747V43.7139ZM167.183 39.5336H167.725C167.725 39.7995 167.633 40.0163 167.449 40.186C167.265 40.3537 167.015 40.4396 166.7 40.4396C166.392 40.4396 166.144 40.3557 165.962 40.186C165.778 40.0183 165.688 39.7995 165.688 39.5336H166.23C166.23 39.6625 166.265 39.7729 166.336 39.871C166.408 39.9672 166.531 40.0163 166.702 40.0163C166.874 40.0163 166.999 39.9672 167.073 39.871C167.146 39.7729 167.183 39.6625 167.183 39.5336Z" fill="#010101"/>
<path d="M171.823 43.7139L173.644 40.7934H174.312V44.5708H173.731V41.6503L171.922 44.5708H171.243V40.7934H171.823V43.7139Z" fill="#010101"/>
<path d="M177.323 44.5687V40.7914H178.867C179.274 40.7914 179.597 40.8834 179.836 41.0675C180.076 41.2515 180.196 41.4928 180.196 41.7955C180.196 42.0246 180.129 42.2025 179.992 42.3293C179.855 42.454 179.681 42.5399 179.468 42.5829C179.607 42.6033 179.742 42.6504 179.875 42.7302C180.006 42.8079 180.116 42.9183 180.202 43.0533C180.288 43.1903 180.333 43.358 180.333 43.5564C180.333 43.7507 180.284 43.9225 180.186 44.0738C180.088 44.2272 179.947 44.3479 179.765 44.4358C179.581 44.5237 179.362 44.5687 179.106 44.5687H177.323ZM177.873 42.3763H178.867C179.022 42.3763 179.155 42.3538 179.268 42.3109C179.38 42.2679 179.466 42.2045 179.523 42.1248C179.583 42.043 179.613 41.9469 179.613 41.8344C179.613 41.6769 179.548 41.5501 179.415 41.4601C179.282 41.3681 179.1 41.3231 178.867 41.3231H177.873V42.3763ZM177.873 44.039H179.102C179.302 44.039 179.458 43.992 179.572 43.8959C179.685 43.7998 179.742 43.6709 179.742 43.5073C179.742 43.313 179.685 43.1596 179.572 43.0471C179.458 42.9347 179.302 42.8795 179.102 42.8795H177.873V44.039Z" fill="#010101"/>
<path d="M180.971 43.6055H181.591C181.605 43.7752 181.683 43.9061 181.824 43.994C181.965 44.082 182.149 44.127 182.378 44.127C182.611 44.127 182.81 44.08 182.975 43.9838C183.141 43.8877 183.223 43.7323 183.223 43.5175C183.223 43.3907 183.192 43.2803 183.129 43.1862C183.065 43.0921 182.98 43.0185 182.865 42.9674C182.753 42.9142 182.62 42.8897 182.464 42.8897H181.816V42.3682H182.464C182.695 42.3682 182.867 42.315 182.977 42.2107C183.088 42.1043 183.143 41.9734 183.143 41.816C183.143 41.6483 183.084 41.5112 182.963 41.409C182.845 41.3067 182.675 41.2556 182.456 41.2556C182.235 41.2556 182.049 41.3047 181.902 41.4028C181.754 41.5031 181.677 41.6299 181.669 41.7853H181.059C181.065 41.5808 181.127 41.4029 181.245 41.2454C181.364 41.09 181.525 40.9652 181.728 40.8773C181.932 40.7873 182.166 40.7423 182.425 40.7423C182.691 40.7423 182.922 40.7893 183.117 40.8814C183.313 40.9734 183.464 41.0981 183.573 41.2576C183.679 41.4151 183.732 41.5951 183.732 41.7955C183.732 42.0082 183.673 42.1821 183.552 42.3109C183.431 42.4418 183.282 42.5359 183.102 42.5911V42.6299C183.245 42.6402 183.37 42.6852 183.474 42.767C183.581 42.8488 183.663 42.9551 183.722 43.084C183.781 43.2149 183.81 43.358 183.81 43.5155C183.81 43.7445 183.749 43.9449 183.626 44.1147C183.503 44.2844 183.333 44.4153 183.121 44.5074C182.906 44.5994 182.66 44.6465 182.384 44.6465C182.116 44.6465 181.877 44.6035 181.667 44.5156C181.456 44.4276 181.288 44.3049 181.163 44.1495C181.043 43.994 180.977 43.812 180.971 43.6055Z" fill="#010101"/>
<path d="M184.63 45.986V40.7934H185.19V41.3926H185.26C185.303 41.3272 185.362 41.2433 185.438 41.1411C185.514 41.0388 185.624 40.9468 185.767 40.865C185.91 40.7832 186.105 40.7423 186.352 40.7423C186.669 40.7423 186.949 40.822 187.193 40.9816C187.434 41.139 187.624 41.3661 187.761 41.6565C187.896 41.9489 187.966 42.2925 187.966 42.6892C187.966 43.0901 187.898 43.4357 187.761 43.7282C187.624 44.0206 187.436 44.2476 187.195 44.4072C186.953 44.5667 186.677 44.6465 186.36 44.6465C186.119 44.6465 185.923 44.6055 185.777 44.5237C185.632 44.444 185.52 44.3519 185.442 44.2456C185.362 44.1413 185.303 44.0554 185.26 43.9859H185.211V45.9819H184.63V45.986ZM185.201 42.6811C185.201 42.9674 185.242 43.2169 185.325 43.4337C185.409 43.6505 185.532 43.8202 185.691 43.9429C185.851 44.0656 186.049 44.127 186.28 44.127C186.524 44.127 186.726 44.0636 186.888 43.9347C187.051 43.8059 187.174 43.6321 187.258 43.4132C187.34 43.1944 187.383 42.951 187.383 42.6811C187.383 42.4152 187.342 42.1759 187.26 41.9612C187.18 41.7464 187.058 41.5767 186.894 41.452C186.732 41.3272 186.526 41.2638 186.28 41.2638C186.045 41.2638 185.847 41.3231 185.685 41.4417C185.526 41.5603 185.403 41.726 185.321 41.9387C185.242 42.1514 185.201 42.3988 185.201 42.6811Z" fill="#010101"/>
<path d="M190.383 44.6485C190.043 44.6485 189.743 44.5687 189.487 44.4051C189.232 44.2415 189.031 44.0165 188.888 43.7241C188.745 43.4316 188.673 43.0901 188.673 42.7015C188.673 42.3089 188.745 41.9653 188.888 41.6708C189.031 41.3783 189.232 41.1493 189.487 40.9877C189.743 40.8261 190.043 40.7443 190.383 40.7443C190.724 40.7443 191.023 40.8261 191.279 40.9877C191.534 41.1493 191.737 41.3783 191.878 41.6708C192.021 41.9653 192.093 42.3089 192.093 42.7015C192.093 43.0921 192.021 43.4337 191.878 43.7241C191.735 44.0165 191.534 44.2415 191.279 44.4051C191.023 44.5667 190.724 44.6485 190.383 44.6485ZM190.383 44.127C190.643 44.127 190.855 44.0615 191.023 43.9286C191.191 43.7957 191.313 43.6218 191.395 43.405C191.475 43.1883 191.516 42.9531 191.516 42.7015C191.516 42.45 191.477 42.2148 191.395 41.9959C191.313 41.7771 191.191 41.6012 191.023 41.4663C190.855 41.3313 190.643 41.2638 190.383 41.2638C190.125 41.2638 189.911 41.3313 189.743 41.4663C189.577 41.6012 189.452 41.7771 189.371 41.9959C189.291 42.2148 189.25 42.45 189.25 42.7015C189.25 42.9531 189.291 43.1883 189.371 43.405C189.45 43.6218 189.575 43.7957 189.743 43.9286C189.911 44.0595 190.125 44.127 190.383 44.127Z" fill="#010101"/>
<path d="M194.514 44.6485C194.16 44.6485 193.856 44.5646 193.6 44.399C193.344 44.2313 193.148 44.0002 193.011 43.7077C192.874 43.4132 192.804 43.0778 192.804 42.7015C192.804 42.317 192.876 41.9796 193.017 41.6851C193.158 41.3906 193.357 41.1615 193.612 40.9938C193.866 40.8282 194.164 40.7443 194.506 40.7443C194.772 40.7443 195.011 40.7934 195.224 40.8916C195.436 40.9897 195.61 41.1268 195.747 41.3047C195.882 41.4826 195.968 41.6892 196.001 41.9244H195.42C195.375 41.7526 195.277 41.5992 195.126 41.4663C194.974 41.3333 194.77 41.2658 194.514 41.2658C194.289 41.2658 194.091 41.3251 193.921 41.4417C193.751 41.5583 193.62 41.724 193.526 41.9366C193.432 42.1493 193.385 42.3968 193.385 42.6831C193.385 42.9756 193.432 43.2292 193.524 43.446C193.618 43.6627 193.749 43.8304 193.919 43.9491C194.089 44.0677 194.287 44.129 194.516 44.129C194.667 44.129 194.804 44.1024 194.927 44.0513C195.05 44.0002 195.154 43.9245 195.24 43.8263C195.324 43.7282 195.385 43.6096 195.422 43.4705H196.003C195.97 43.6934 195.888 43.8938 195.76 44.0718C195.631 44.2497 195.461 44.3908 195.252 44.4951C195.038 44.5953 194.794 44.6485 194.514 44.6485Z" fill="#010101"/>
<path d="M196.51 44.5687V44.0268H196.647C196.762 44.0268 196.856 44.0043 196.929 43.9593C197.005 43.9143 197.066 43.8345 197.113 43.72C197.16 43.6055 197.195 43.448 197.222 43.2435C197.248 43.039 197.265 42.7792 197.277 42.4643L197.345 40.7914H199.862V44.5687H199.281V41.3333H197.895L197.835 42.6811C197.823 42.9899 197.794 43.2639 197.754 43.4991C197.711 43.7343 197.647 43.9306 197.563 44.0902C197.48 44.2476 197.367 44.3683 197.228 44.4501C197.089 44.5299 196.915 44.5708 196.704 44.5708H196.51V44.5687Z" fill="#010101"/>
<path d="M201.429 42.1596H202.511C202.952 42.1596 203.292 42.272 203.525 42.497C203.76 42.722 203.877 43.0062 203.877 43.3498C203.877 43.5768 203.824 43.7813 203.719 43.9675C203.615 44.1515 203.462 44.2988 203.257 44.4072C203.055 44.5156 202.805 44.5708 202.511 44.5708H200.926V40.7934H201.506V44.0288H202.511C202.74 44.0288 202.928 43.9695 203.075 43.8468C203.222 43.7261 203.296 43.5707 203.296 43.3805C203.296 43.1801 203.222 43.0165 203.075 42.8917C202.928 42.7649 202.74 42.7015 202.511 42.7015H201.429V42.1596ZM204.478 44.5687V40.7914H205.059V44.5687H204.478Z" fill="#010101"/>
<path d="M206.554 40.7914L207.458 42.3354L208.364 40.7914H209.033L207.814 42.679L209.033 44.5667H208.364L207.458 43.1024L206.554 44.5667H205.885L207.086 42.679L205.885 40.7914H206.554Z" fill="#010101"/>
<path d="M35.6521 22.1009C29.5617 21.8514 24.8088 16.6936 25.0583 10.6032C25.3078 4.51276 30.4657 -0.240115 36.5561 0.0093912C42.6465 0.258898 47.3994 5.41672 47.1499 11.5071C46.9024 17.5975 41.7446 22.3504 35.6521 22.1009ZM36.2964 6.34931C33.7011 6.24296 31.5026 8.26763 31.3962 10.8629C31.2899 13.4582 33.3146 15.6567 35.9098 15.761C38.5051 15.8674 40.7036 13.8427 40.8079 11.2474C40.9184 8.65212 38.8916 6.45565 36.2964 6.34931Z" fill="url(#paint2_linear_91_18)"/>
<path d="M10.7118 10.6727L0.134333 27.3753C-0.219475 27.9357 0.165013 28.6699 0.827636 28.6965L20.5816 29.5043C21.2442 29.5309 21.688 28.8314 21.3792 28.2445L12.2027 10.732C11.8939 10.1471 11.0656 10.1123 10.7118 10.6727Z" fill="#76C591"/>
<path d="M37.7117 11.1206C37.6749 12.0082 36.9243 12.6994 36.0367 12.6626C35.1491 12.6258 34.4599 11.8752 34.4947 10.9877C34.5315 10.1001 35.28 9.40883 36.1676 9.44565C37.0572 9.48246 37.7485 10.233 37.7117 11.1206Z" fill="#76C591"/>
<path d="M19.3218 53.9927L8.50102 42.2496C6.40681 39.9754 6.54997 36.4332 8.82416 34.339L20.5673 23.5202C22.8415 21.426 26.3816 21.5692 28.4779 23.8434L39.2967 35.5865C41.3909 37.8607 41.2477 41.4009 38.9735 43.4971L27.2304 54.3179C24.9582 56.4101 21.416 56.2649 19.3218 53.9927ZM14.4626 39.3557L22.6922 48.2889C23.1278 48.7613 23.8641 48.792 24.3365 48.3563L33.2696 40.1267C33.7421 39.6911 33.7727 38.9549 33.3371 38.4825L25.1075 29.5493C24.6719 29.0769 23.9356 29.0462 23.4632 29.4818L14.5301 37.7114C14.0577 38.145 14.027 38.8813 14.4626 39.3557Z" fill="url(#paint3_linear_91_18)"/>
<path d="M36.1042 11.0552L23.9009 38.9181" stroke="#76C591" stroke-width="0.9073" stroke-miterlimit="10"/>
<path d="M23.9009 40.454C24.7491 40.454 25.4368 39.7663 25.4368 38.9181C25.4368 38.0698 24.7491 37.3822 23.9009 37.3822C23.0526 37.3822 22.365 38.0698 22.365 38.9181C22.365 39.7663 23.0526 40.454 23.9009 40.454Z" fill="#82C2EB"/>
<defs>
<linearGradient id="paint0_linear_91_18" x1="247.412" y1="1.08347" x2="247.412" y2="25.1125" gradientUnits="userSpaceOnUse">
<stop offset="0.00035903" stop-color="#FEEB8A"/>
<stop offset="0.2675" stop-color="#F8C3A8"/>
<stop offset="0.5391" stop-color="#F59BB6"/>
<stop offset="0.6841" stop-color="#F497B5"/>
<stop offset="0.8639" stop-color="#F28BB1"/>
<stop offset="0.9989" stop-color="#EF7FAD"/>
</linearGradient>
<linearGradient id="paint1_linear_91_18" x1="261.806" y1="1.08349" x2="261.806" y2="25.1125" gradientUnits="userSpaceOnUse">
<stop offset="0.00035903" stop-color="#FEEB8A"/>
<stop offset="0.2675" stop-color="#F8C3A8"/>
<stop offset="0.5391" stop-color="#F59BB6"/>
<stop offset="0.6841" stop-color="#F497B5"/>
<stop offset="0.8639" stop-color="#F28BB1"/>
<stop offset="0.9989" stop-color="#EF7FAD"/>
</linearGradient>
<linearGradient id="paint2_linear_91_18" x1="25.1053" y1="14.2615" x2="46.342" y2="8.09688" gradientUnits="userSpaceOnUse">
<stop stop-color="#B1DCF5"/>
<stop offset="0.9985" stop-color="#82C2EB"/>
</linearGradient>
<linearGradient id="paint3_linear_91_18" x1="27.8488" y1="54.7567" x2="17.0156" y2="11.3344" gradientUnits="userSpaceOnUse">
<stop offset="0.00035903" stop-color="#FEEB8A"/>
<stop offset="0.2675" stop-color="#F8C3A8"/>
<stop offset="0.5391" stop-color="#F59BB6"/>
<stop offset="0.6841" stop-color="#F497B5"/>
<stop offset="0.8639" stop-color="#F28BB1"/>
<stop offset="0.9989" stop-color="#EF7FAD"/>
</linearGradient>
</defs>
</svg>
