<svg width="25" height="25" viewBox="0 0 25 25" fill="none" xmlns="http://www.w3.org/2000/svg">
<path d="M14.6999 20.5653C1.02983 20.0006 1.033 0.563012 14.6999 0C17.453 0 20.0403 1.06584 21.9853 3.00122C28.4604 9.39401 23.7997 20.5905 14.6999 20.5653ZM14.6999 1.94932C10.0951 1.94932 6.34879 5.68762 6.34879 10.2827C6.8125 21.3458 22.5987 21.3332 23.051 10.2635C23.051 5.67909 19.3047 1.94932 14.6999 1.94932ZM0.976741 25C0.725866 25 0.475089 24.9041 0.284137 24.7126C-0.0962048 24.3309 -0.0944955 23.7138 0.287995 23.3343L4.68331 18.9727C5.0657 18.5931 5.68412 18.5947 6.06461 18.9765C6.44495 19.3582 6.44324 19.9753 6.06075 20.3549L1.66544 24.7165C1.47493 24.9056 1.22581 25 0.976741 25Z" fill="#333333"/>
</svg>
