<svg width="65" height="50" viewBox="0 0 65 50" fill="none" xmlns="http://www.w3.org/2000/svg">
<path opacity="0.1" d="M40.7343 42.1329C39.8601 48.951 45.1049 50 47.9021 50C56.6434 50 64.3357 24.6503 64.3357 14.1608C64.3357 5.5944 57.5175 0 49.8252 0C41.6084 0 35.1399 6.11887 35.1399 13.4615C35.1399 19.7552 39.8601 25.1748 46.5035 26.5734C45.1049 34.2657 41.2587 36.3636 40.7343 42.1329ZM5.59441 42.1329C4.72028 48.951 9.96503 50 12.7622 50C21.5035 50 29.1958 24.6503 29.1958 14.1608C29.1958 5.5944 22.3776 0 14.6853 0C6.46853 0 0 6.11887 0 13.4615C0 19.7552 4.72028 25.1748 11.3636 26.5734C9.96503 34.2657 6.11888 36.3636 5.59441 42.1329Z" fill="#F07FAE"/>
</svg>
